HIERARCHY
ROOT Hips
{
   OFFSET 0.00000 0.00000 0.00000
   CHANNELS 6 Xposition Yposition Zposition Zrotation Xrotation Yrotation
   JOINT RightUpLeg
   {
      OFFSET -10.734961 -10.400485 0.121982
      CHANNELS 3 Zrotation Xrotation Yrotation
      JOINT RightLeg
      {
         OFFSET 0.000000 -53.307237 1.647240
         CHANNELS 3 Zrotation Xrotation Yrotation
         JOINT RightFoot
         {
            OFFSET 0.304259 -50.510883 -1.752708
            CHANNELS 3 Zrotation Xrotation Yrotation
            JOINT RightToes
            {
               OFFSET 0.048000 -5.298108 10.198920
               CHANNELS 3 Zrotation Xrotation Yrotation
               End Site
               {
                  OFFSET -0.096000 -0.164938 11.735748
               }
            }
         }
      }
   }
   JOINT Spine
   {
      OFFSET 0.000000 14.268601 0.000000
      CHANNELS 3 Zrotation Xrotation Yrotation
      JOINT Spine1
      {
         OFFSET 0.000000 30.788881 0.153196
         CHANNELS 3 Zrotation Xrotation Yrotation
         JOINT HEad
         {
            OFFSET 0.000000 10.480993 0.013609
            CHANNELS 3 Zrotation Xrotation Yrotation
            End Site
            {
               OFFSET -0.348000 15.329041 3.016740
            }
         }
         JOINT LeftShoulder1
         {
            OFFSET 10.788001 -0.434702 -0.264000
            CHANNELS 3 Zrotation Xrotation Yrotation
            JOINT LeftArm
            {
               OFFSET 12.339240 -0.004056 0.386548
               CHANNELS 3 Zrotation Xrotation Yrotation
               JOINT LeftForeArm
               {
                  OFFSET 39.320280 0.118973 -1.709208
                  CHANNELS 3 Zrotation Xrotation Yrotation
                  JOINT LeftHand
                  {
                     OFFSET 33.077163 0.102434 1.226592
                     CHANNELS 3 Zrotation Xrotation Yrotation
                     End Site
                     {
                        OFFSET 20.093162 -0.720000 1.803492
                     }
                  }
               }
            }
         }
         JOINT RightShoulder
         {
            OFFSET -10.788001 -0.434702 -0.264000
            CHANNELS 3 Zrotation Xrotation Yrotation
            JOINT RightArm
            {
               OFFSET -12.339240 -0.004056 0.386548
               CHANNELS 3 Zrotation Xrotation Yrotation
               JOINT RightForeArm
               {
                  OFFSET -39.476518 0.118973 -1.709208
                  CHANNELS 3 Zrotation Xrotation Yrotation
                  JOINT RightHand
                  {
                     OFFSET -32.990522 0.102434 1.226592
                     CHANNELS 3 Zrotation Xrotation Yrotation
                     End Site
                     {
                        OFFSET -19.957442 -0.720000 1.803492
                     }
                  }
               }
            }
         }
      }
   }
   JOINT LeftUpLeg
   {
      OFFSET 10.734961 -10.400485 0.121982
      CHANNELS 3 Zrotation Xrotation Yrotation
      JOINT LeftLeg
      {
         OFFSET 0.000000 -53.307237 1.647240
         CHANNELS 3 Zrotation Xrotation Yrotation
         JOINT LeftFoot
         {
            OFFSET -0.304259 -50.510883 -1.752708
            CHANNELS 3 Zrotation Xrotation Yrotation
            JOINT LeftToes
            {
               OFFSET -0.048000 -5.298108 10.198920
               CHANNELS 3 Zrotation Xrotation Yrotation
               End Site
               {
                  OFFSET 0.096000 -0.056938 11.735748
               }
            }
         }
      }
   }
}
MOTION
Frames: 12
Frame Time: 0.016667
-10.1124 44.5306 -212.463 -12.731 8.99992 -26.5455 -73.9677 -78.7166 -109.829 -170.616 45.9581 157.059 25.9447 -5.91879 -8.332 0.0462049 0.000533403 0.662642 -6.56425 26.4068 -0.85029 2.69501 -8.31097 -10.79 13.4217 24.936 27.7135 -0 0 6.36111e-015 -148.166 -6.40037 166.218 -112.978 6.2409 0.545373 13.4973 53.637 -12.6136 8.45556 1.27016 12.2476 142.699 -20.8133 109.629 109.157 59.5308 17.4512 -7.72971 26.1489 3.5094 125.417 -67.1763 88.4096 47.5028 56.4842 -41.4911 -19.3978 46.457 -14.6834 -3.36952e-008 1.56033e-007 -4.88727e-009 
-8.47679 47.2097 -211.456 -12.4473 7.39028 -28.6266 -50.1465 -72.4709 -78.1919 -170.809 50.0299 162.997 30.6602 -6.6689 -3.22315 0.0462049 0.000533403 0.662642 -6.60492 26.8538 -0.719472 2.63701 -8.13669 -10.5708 12.5764 24.2905 28.4554 -3.18055e-015 -3.18055e-015 3.18055e-015 -148.976 -6.34453 166.186 -112.776 6.88177 -0.41995 12.8458 52.9895 -12.2797 7.94924 1.28257 12.7839 142.429 -20.3888 109.274 107.988 58.9012 18.1083 -7.42347 26.4987 3.83843 114.397 -69.1704 76.8663 48.8674 60.529 -41.8324 -18.1669 40.9202 -13.2366 -3.36952e-008 1.56033e-007 -4.88727e-009 
-6.6837 50.3779 -209.85 -12.0631 5.8333 -30.5258 -40.9463 -64.8007 -61.7675 -170.907 55.4914 167.845 35.7432 -6.23751 1.37331 0.0462049 0.000533403 0.662642 -6.52518 26.641 -0.511244 2.56862 -7.93085 -10.3116 11.7468 23.9851 28.8977 -3.18055e-015 -3.18055e-015 -3.18055e-015 -149.587 -6.40665 166.39 -112.498 7.63017 -1.28487 12.1276 52.3104 -11.8034 7.5554 1.55492 13.2549 142.034 -19.8845 108.989 106.699 58.1817 18.7235 -7.07296 26.8884 4.07302 99.4862 -69.5781 60.7379 46.8671 64.6438 -37.1011 -20.6761 37.1905 -10.5496 -3.36952e-008 1.56033e-007 -4.88727e-009 
-4.8066 54.017 -207.708 -11.5867 4.38443 -32.2072 -36.9013 -57.176 -51.0611 -170.863 62.1542 171.224 41.5775 -4.84549 5.31963 0.0462049 0.000533403 0.662642 -6.28922 25.8415 -0.20063 2.49075 -7.69607 -10.0153 10.9465 23.9493 29.0214 -1.59028e-015 -4.77083e-015 -0 -146.86 -4.27604 167.124 -109.087 8.73194 -0.475434 11.4089 51.6045 -11.0775 7.29643 2.02686 13.6281 141.51 -19.3229 108.759 105.322 57.4359 19.2287 -6.76949 27.2058 4.28616 85.2023 -68.3505 45.5911 41.0126 68.9012 -29.2617 -21.9658 33.6246 -8.37119 -3.36952e-008 1.56033e-007 -4.88727e-009 
-2.27975 59.6036 -204.106 -11.0027 3.07696 -33.6592 -32.9514 -54.9713 -44.1657 -170.755 68.2815 168.403 22.5584 -5.92943 5.98869 0.0462049 0.000533403 0.662642 -5.85345 24.5049 0.22304 2.40432 -7.43495 -9.68508 10.1239 24.1545 28.813 4.77083e-015 -1.59028e-015 -0 -142.269 -1.17542 167.075 -107.584 11.7186 -1.01941 9.03191 48.5147 -4.77203 7.55098 2.57167 13.7181 142.006 -14.9572 108.76 103.508 54.6985 16.5377 -6.65141 27.6107 4.76096 71.1514 -65.607 32.367 29.3466 72.8398 -16.5658 -21.1887 29.3139 -6.63965 -3.36952e-008 1.56033e-007 -4.88727e-009 
0.190331 65.1922 -200.246 -10.3251 1.90134 -34.9039 -27.4936 -50.8769 -36.7924 -170.396 75.5779 165.729 3.58925 -9.77659 4.79065 0.0462049 0.000533403 0.662642 -5.24224 22.7674 0.766244 2.31023 -7.15012 -9.32406 9.24316 24.5449 28.3477 7.06225e-031 3.18055e-015 -1.27222e-014 -140.583 0.474782 167.369 -107.266 13.9831 -1.05159 7.61538 46.0729 -0.921953 7.88309 3.32015 13.6409 141.765 -12.5135 108.659 102.47 53.1698 14.8243 -6.48703 27.6547 4.71036 62.6524 -61.4058 25.4445 6.12001 75.0347 5.5953 -18.2468 25.3535 -5.76861 -3.36952e-008 1.56033e-007 -4.88727e-009 
2.2322 70.1243 -196.433 -9.57905 0.85087 -35.9802 -28.1567 -43.6224 -29.7507 -166.731 83.4335 161.805 16.496 -10.6194 8.95277 0.0462049 0.000533403 0.662642 -4.56413 21.1443 1.33541 2.20938 -6.84418 -8.93533 8.20806 24.7193 27.9326 -3.18055e-015 1.59028e-015 -6.36111e-015 -140.826 1.26364 167.737 -107.694 15.7297 -0.914091 7.14219 44.5506 0.613494 8.25373 3.88956 13.5258 141.012 -11.2753 108.389 101.874 52.4293 13.7809 -6.65507 27.715 4.87728 58.3801 -56.1536 23.0761 -15.4199 73.8457 24.8019 -15.6649 22.0105 -5.47456 -3.36952e-008 1.56033e-007 -4.88727e-009 
4.08868 74.859 -192.348 -8.80501 -0.117185 -36.9135 -28.3366 -36.1133 -22.867 -22.9035 88.3907 16.7385 29.93 -10.3682 13.5903 0.0462049 0.000533403 0.662642 -3.84292 19.6851 1.94006 2.10268 -6.51977 -8.52202 6.99879 24.7286 27.5946 1.59028e-015 1.59028e-015 -3.18055e-015 -142.42 1.35762 168.191 -108.65 17.1108 -0.746524 6.7435 43.1368 1.60458 8.61416 4.37634 13.2912 139.912 -10.758 107.904 101.565 52.2056 13.1759 -6.76105 27.5831 4.76746 55.8224 -50.7616 22.6226 -31.4205 70.8972 37.8115 -12.9487 19.0638 -5.56318 -3.36952e-008 1.56033e-007 -4.88727e-009 
5.78407 79.043 -188.084 -8.0318 -0.997663 -37.7343 -28.5129 -29.2176 -17.1126 -2.98531 80.5269 -5.3728 42.9608 -8.04032 17.0471 0.0462049 0.000533403 0.662642 -3.0915 18.3902 2.59385 1.991 -6.1795 -8.08729 5.60794 24.6303 27.359 2.38542e-015 -1.59028e-015 6.36111e-015 -145.006 0.864264 168.699 -110.021 18.1987 -0.633588 6.78118 42.0228 1.68221 8.90468 4.8626 12.8844 138.618 -10.6348 107.194 101.464 52.3041 12.8615 -7.04238 27.4875 4.74114 55.2735 -44.1299 22.3653 -42.238 66.6743 45.1057 -20.6067 18.3962 -5.7095 -3.36952e-008 1.56033e-007 -4.88727e-009 
7.65695 83.85 -183.165 -7.29434 -1.78942 -38.4549 -24.5122 -26.7901 -12.1647 -5.02182 76.7567 -6.83365 25.5465 -13.349 13.4525 0.0462049 0.000533403 0.662642 -2.3209 17.2698 3.29064 1.87524 -5.82599 -7.63435 4.04188 24.4743 27.2475 7.95139e-016 0 -6.36111e-015 -148.354 -0.123541 169.214 -111.717 19.0417 -0.600894 6.83042 40.8469 1.75982 9.07774 5.40639 12.2907 137.255 -10.7022 106.287 101.534 52.5841 12.7242 -7.23321 27.3416 4.4683 52.1284 -36.6153 20.8317 -44.2717 60.8228 43.8322 -28.5097 18.2087 -4.75601 -3.36952e-008 1.56033e-007 -4.88727e-009 
9.15669 87.6154 -178.629 -6.62154 -2.4843 -39.0734 -20.7389 -23.697 -8.24295 0.604852 71.8801 -13.0056 3.545 -16.0823 6.43467 0.0462049 0.000533403 0.662642 -1.54546 16.3306 4.01094 1.75626 -5.46189 -7.16643 2.32171 24.2964 27.276 -7.95139e-016 -7.95139e-016 6.36111e-015 -152.303 -1.51457 169.693 -113.647 19.6782 -0.652236 7.10647 39.79 1.49787 9.11968 6.03383 11.5232 135.904 -10.844 105.229 101.738 52.9414 12.6926 -7.49105 27.2826 4.18047 49.0817 -29.4657 19.6685 -43.2819 54.927 39.7257 -37.3041 18.756 -3.12767 -3.36952e-008 1.56033e-007 -4.88727e-009 
10.257 89.7738 -174.768 -6.0261 -3.14692 -39.5955 -25.073 -18.6704 -4.33053 10.0545 66.6438 -17.7463 30.407 -9.32157 13.3333 0.0462049 0.000533403 0.662642 -0.838107 15.6376 4.73388 1.63492 -5.08981 -6.68678 0.466647 24.1246 27.4555 -7.95139e-016 0 -3.18055e-015 -156.838 -3.20052 170.108 -115.692 20.118 -0.758274 7.57788 38.4928 1.43736 9.05211 6.83168 10.58 134.626 -10.9662 104.096 101.994 53.2911 12.7353 -7.84621 27.2087 3.64399 46.7327 -23.5431 19.0337 -41.7916 50.1771 35.6988 -47.1076 19.4651 -1.06432 -3.36952e-008 1.56033e-007 -4.88727e-009 
